<svg xmlns="http://www.w3.org/2000/svg" viewBox="0 0 291.136 291.136" style="enable-background:new 0 0 291.136 291.136" xml:space="preserve"><path style="fill:#efc75e" d="m206.199 180.832.81 1.384h1.62l77.709-.337 4.798-.036-2.412-4.142-91.956-158.287-.801-1.384h-1.62l-77.728.319-4.798.018 2.422 4.142 91.956 158.323z"/><path style="fill:#3db39e" d="m138.413 100.619-.819-1.393-40.011-68.433-2.422-4.133-2.394 4.142L.819 189.681 0 191.055l.819 1.384 40.011 68.46 2.422 4.124 2.403-4.142 91.966-158.878.792-1.384z"/><path style="fill:#26a6d1" d="M103.509 199.922h-1.602l-.801 1.366-39.437 67.659-2.385 4.16h189.212l.801-1.402 39.446-67.659 2.385-4.124H103.509z"/></svg>