<svg xmlns="http://www.w3.org/2000/svg" viewBox="0 0 889 889" style="enable-background:new 0 0 889 889" xml:space="preserve"><style>.st0{fill:#f23900}</style><g id="Layer_1"><path class="st0" d="M756.46 635.95c-1.62 1.11-2.81 2.02-4.08 2.79-9.19 5.5-18.37 11.02-27.61 16.45-45.77 26.89-91.54 53.77-137.35 80.6-27.98 16.39-56.03 32.66-83.99 49.07-2.56 1.5-4.5 1.54-7.15.06-27.25-15.31-54.63-30.38-81.88-45.69-40.74-22.9-81.39-45.98-122.15-68.85-3.14-1.76-4.09-3.82-4.09-7.24.13-55.34.16-110.67.19-166.01.02-45.93.09-91.86-.12-137.8-.02-4.95 1.55-7.57 5.79-9.98 12.61-7.17 24.84-15 37.37-22.31 28.6-16.67 57.29-33.19 85.97-49.73 10.5-6.06 21.12-11.91 31.6-18.01 18.57-10.82 37.07-21.76 55.59-32.67 9.98-5.88 19.92-11.81 29.89-17.69 3.94-2.33 7.85-4.75 11.95-6.75 1.31-.64 3.53-.67 4.77.03 7.2 4.04 14.18 8.47 21.34 12.59 4.32 2.48 8.85 4.6 13.26 6.93 4.04 2.13 8.07 4.28 12.08 6.49 6.01 3.3 11.99 6.64 17.97 10 7.8 4.37 16.01 9.06 23.82 13.41 1.44 1.27 3.53 2.79 5 4 1.38 1.13 5 3 7 5 1 1-.65 3.14-2 4-2 2-3 2-8 5 0 0-2.04 1.56-3.04 2.17-11.77 7.14-23.6 14.18-35.4 21.27-21.45 12.89-42.92 25.74-64.33 38.69-30.36 18.37-60.65 36.85-91.01 55.21-15.24 9.21-30.61 18.22-45.87 27.4a65.721 65.721 0 0 0-8.45 6.07c-.87.74-1.31 2.42-1.33 3.68-.16 14.33-.27 28.65-.26 42.98.03 44.73.14 89.46.14 134.19 0 2.52.79 3.87 3.02 5.1 27.1 14.91 54.14 29.91 81.18 44.93 6.09 3.38 12.03 7.03 18.17 10.29 1.31.69 3.47.8 4.81.21 3.47-1.52 6.67-3.63 10.02-5.42 10.02-5.35 20.11-10.55 30.07-16 9.19-5.04 18.25-10.32 27.36-15.51 16.7-9.52 33.38-19.09 50.12-28.55 10.56-5.96 21.22-11.75 31.83-17.62 2.09-1.16 4.23-2.23 6.2-3.57 2.8-1.91 5-.96 7.4.85 3.55 2.67 7.21 5.23 10.97 7.59 26.49 16.59 53.03 33.11 79.54 49.68 1.17.69 2.22 1.59 3.69 2.67z"/><path class="st0" d="M761.92 478c0 31.49.01 62.98 0 94.47 0 6.34-.05 12.67-.11 19.01-.01.98-.08 1.97-.25 2.94-.68 3.96-3.32 5.46-6.85 3.6-6.09-3.2-12.1-6.56-18.1-9.94-41.69-23.5-85.44-42.9-128.18-64.32-15.92-7.97-31.68-16.25-47.43-24.57-4.7-2.48-9.1-5.54-13.61-8.37-5.46-3.42-5.59-11.48-.03-14.67 18.57-10.66 37.12-21.35 55.89-31.65 15.32-8.41 31.06-16.04 46.41-24.41 35.74-19.48 71.37-39.19 107.02-58.84 3.95-2.18 5.1-1.57 5.1 3.25.03 37.83.02 75.66.02 113.49.04.01.08.01.12.01z"/><path d="M360.62 263.76c-2.57 1.49-4.87 2.72-7.07 4.11-20.23 12.77-40.4 25.64-60.69 38.32-12.41 7.76-24.9 15.42-37.56 22.77-3.28 1.91-4.7 4.4-4.98 7.72-.31 3.57-.15 7.18-.15 10.78-.01 94.25-.01 188.51 0 282.76 0 4.36.21 8.72.17 13.09-.04 5.24-1.84 6.42-6.35 3.93-8.6-4.75-17.09-9.7-25.64-14.56-7.39-4.2-14.79-8.39-22.18-12.58-6.45-3.66-12.9-7.32-19.36-10.97-2.34-1.32-3.24-3.27-3.2-5.96.2-14.54.46-29.08.4-43.62-.27-70.85-.69-141.7-.93-212.55-.07-19.13.34-38.27.38-57.4.01-3.15 1.17-4.85 3.92-6.36 15.12-8.31 30.11-16.87 45.16-25.3 21.13-11.84 42.27-23.69 63.48-35.4 1.12-.62 3.23-.51 4.39.14 19.02 10.76 37.99 21.62 56.91 32.56 4.4 2.53 8.58 5.47 13.3 8.52zm10.5-90.14c7.66-4.75 14.68-9.15 21.76-13.46 14.93-9.08 29.87-18.14 44.88-27.08.92-.55 2.73-.39 3.74.15 14.28 7.55 28.5 15.24 42.74 22.88 9.62 5.16 19.26 10.31 28.88 15.47 1.14.61 2.24 1.29 3.65 2.1-2.03 1.59-3.67 3.19-5.58 4.33-22.23 13.28-44.91 25.7-68.45 36.55-2.51 1.16-4.55 1.31-6.95-.2-15.26-9.58-30.59-19.04-45.87-28.6-6.08-3.81-12.05-7.78-18.8-12.14z"/><linearGradient id="SVGID_1_" gradientUnits="userSpaceOnUse" x1="340.772" y1="572.806" x2="340.772" y2="326.979"><stop offset="0" style="stop-color:#f23900"/><stop offset=".321" style="stop-color:#d23200"/><stop offset=".767" style="stop-color:#ab2800"/><stop offset="1" style="stop-color:#9c2500"/></linearGradient></g><g id="shadow"><linearGradient id="SVGID_00000067201953450898189010000013185467537940588171_" gradientUnits="userSpaceOnUse" x1="340.772" y1="598.806" x2="340.772" y2="352.979"><stop offset="0" style="stop-color:#f23900"/><stop offset=".321" style="stop-color:#d23200"/><stop offset=".767" style="stop-color:#ab2800"/><stop offset="1" style="stop-color:#9c2500"/></linearGradient><path style="fill:url(#SVGID_00000067201953450898189010000013185467537940588171_)" d="m289.44 353.54 104.1 66.88s-1.36.89-1.2 2.48c.16 1.59-.25 175.9-.25 175.9l-102.65-45.63-1.43-195.97c-.01-1.2.35-2.42 1.13-3.35.09-.1-.14.15.3-.31z"/><linearGradient id="SVGID_00000000191386948332826590000000236150139930928023_" gradientUnits="userSpaceOnUse" x1="436.678" y1="742.657" x2="436.678" y2="514.043" gradientTransform="rotate(-117 522.327 613.011)"><stop offset="0" style="stop-color:#f23900"/><stop offset=".321" style="stop-color:#d23200"/><stop offset=".767" style="stop-color:#ab2800"/><stop offset="1" style="stop-color:#9c2500"/></linearGradient><path style="fill:url(#SVGID_00000000191386948332826590000000236150139930928023_)" d="m500 786-1-124 151-84 24 107-169 99c-1.07.55-3.82 2.28-5 2-.14-.03.61.18 0 0z"/></g></svg>